 <svg 
      xmlns="http://www.w3.org/2000/svg" 
      viewBox="0 0 500.01 95.43"
      className="w-full h-auto"
      preserveAspectRatio="none"
    >
      <g>
        <circle fill="#ffffff" cx="119.88" cy="59.85" r="13.88"/>
        <circle fill="#ffffff" cx="136.25" cy="51.31" r="13.88"/>
        <rect fill="#ffffff" y="59.43" width="500" height="36"/>
        <circle fill="#ffffff" cx="151.92" cy="57.01" r="13.88"/>
        <circle fill="#ffffff" cx="161.88" cy="65.55" r="13.88"/>
        <circle fill="#ffffff" cx="402.58" cy="67.75" r="23.58"/>
        <circle fill="#ffffff" cx="425.4" cy="46.23" r="23.58"/>
        <circle fill="#ffffff" cx="453.62" cy="48.31" r="23.58"/>
        <ellipse fill="#ffffff" cx="476.14" cy="58.67" rx="23.86" ry="23.58"/>
        <circle fill="#ffffff" cx="331.36" cy="58.11" r="34.12"/>
        <circle fill="#ffffff" cx="286.18" cy="34.13" r="34.12"/>
        <circle fill="#ffffff" cx="246.26" cy="57.83" r="34.12"/>
        <circle fill="#ffffff" cx="76.88" cy="61.17" r="13.74"/>
        <circle fill="#ffffff" cx="59.49" cy="51.56" r="13.74"/>
        <circle fill="#ffffff" cx="43.49" cy="47.56" r="13.74"/>
        <circle fill="#ffffff" cx="28.49" cy="52.56" r="13.74"/>
        <circle fill="#ffffff" cx="14.49" cy="61.56" r="13.74"/>
        <circle fill="#ffffff" cx="100.55" cy="58.03" r="11.6"/>
        <circle fill="#ffffff" cx="197.18" cy="57.45" r="23.58"/>
        <circle fill="#ffffff" cx="365.49" cy="55.56" r="23.58"/>
      </g>
    </svg>